<svg xmlns="http://www.w3.org/2000/svg" data-name="Layer 1" viewBox="0 0 100 100" x="0px" y="0px"><title>collections_05</title><path d="M75.26,47.47L86.4,40.62a1,1,0,0,0,.48-0.85V33.62a1,1,0,0,0-.05-0.31s0,0,0,0L80.55,15.87a1,1,0,0,0-.3-0.41,1,1,0,0,0-.34-0.25L67.7,10.07a1,1,0,0,0-.36-0.14L61.86,9a1,1,0,0,0-.81.22,1,1,0,0,0-.35.76c0,5.45-4.79,9.89-10.68,9.89S39.33,15.45,39.33,10a1,1,0,0,0-1.16-1l-5.49.92a1,1,0,0,0-.15.05H32.45L20.09,15.22a1,1,0,0,0-.55.61,0.94,0.94,0,0,0-.09.15L13.18,33.39s0,0,0,0a1,1,0,0,0-.05.31v6.15a1,1,0,0,0,.48.85l11.14,6.85a1,1,0,0,0,.31.12v9.06H14.23a1,1,0,0,0-1,1V75.33a1,1,0,0,0,1,1H25v8a1,1,0,0,0,1,1h1.43V90a1,1,0,0,0,1,1h43a1,1,0,0,0,1-1V85.37H74a1,1,0,0,0,1-1v-8H85.77a1,1,0,0,0,1-1V57.75a1,1,0,0,0-1-1H75V47.59A1,1,0,0,0,75.26,47.47Zm9.62-8.26L75,45.31V40.72a1,1,0,0,0,.27-0.08l9.66-5.33v3.9Zm-0.23-6.05L75,38.5V30.25L79.5,18.87Zm-47.26-22C38,17.18,43.44,21.89,50,21.89s12-4.71,12.62-10.72l3.52,0.59C65.68,19.64,58.62,25.92,50,25.92S34.34,19.64,33.87,11.76ZM20.52,18.92L25,30.25v8.36l-9.7-5.35ZM15.13,39.32v-3.9l9.66,5.33a1,1,0,0,0,.27.08v4.59ZM70.52,89h-41V85.37h41V89ZM73,83.37H27v-7H73v7Zm2.8-20.81a1,1,0,0,0,1-1V58.75h8V74.33H15.23V58.75h8v2.81a1,1,0,0,0,2,0V58.75h4.44V64a1,1,0,0,0,2,0V58.75h4.44v2.81a1,1,0,0,0,2,0V58.75h4.44V64a1,1,0,0,0,2,0V58.75H49v2.81a1,1,0,0,0,2,0V58.75h4.44V64a1,1,0,0,0,2,0V58.75h4.44v2.81a1,1,0,0,0,2,0V58.75h4.44V64a1,1,0,0,0,2,0V58.75h4.44v2.81A1,1,0,0,0,75.75,62.56ZM73,29.69a1,1,0,0,0-.07.37V56.75H27V30.06A1,1,0,0,0,27,29.69l-5.21-13,10.15-4.29c0.8,8.68,8.61,15.52,18.09,15.52S67.29,21.08,68.1,12.41l10.13,4.27Z"></path></svg>