<?xml version="1.0" encoding="UTF-8"?>
<!-- Generator: Adobe Illustrator 16.0.3, SVG Export Plug-In . SVG Version: 6.00 Build 0)  -->
<!DOCTYPE svg PUBLIC "-//W3C//DTD SVG 1.1//EN" "http://www.w3.org/Graphics/SVG/1.1/DTD/svg11.dtd">
<svg version="1.1" id="Layer_1" xmlns="http://www.w3.org/2000/svg" xmlns:xlink="http://www.w3.org/1999/xlink" x="0px" y="0px" width="100px" height="100px" viewBox="0 0 100 100" enable-background="new 0 0 100 100" xml:space="preserve">
<circle fill="#FFFFFF" cx="49.917" cy="49.918" r="29.67"/>
<path fill="#FFFFFF" d="M64.477,20.178c6.592,3.233,11.948,8.59,15.181,15.182l5.557-20.738L64.477,20.178z"/>
<path fill="#FFFFFF" d="M49.917,16.808c3.76,0,7.368,0.635,10.736,1.79L49.917,0L39.181,18.597  C42.549,17.443,46.158,16.808,49.917,16.808z"/>
<path fill="#FFFFFF" d="M35.357,20.178l-20.737-5.557l5.556,20.737C23.41,28.767,28.767,23.41,35.357,20.178z"/>
<path fill="#FFFFFF" d="M16.807,49.918c0-3.76,0.636-7.369,1.79-10.737L0,49.918l18.597,10.736  C17.442,57.286,16.807,53.678,16.807,49.918z"/>
<path fill="#FFFFFF" d="M20.177,64.478l-5.556,20.737l20.738-5.557C28.767,76.426,23.41,71.069,20.177,64.478z"/>
<path fill="#FFFFFF" d="M49.917,83.028c-3.759,0-7.369-0.636-10.737-1.79l10.738,18.598l10.737-18.598  C57.285,82.393,53.677,83.028,49.917,83.028z"/>
<path fill="#FFFFFF" d="M79.657,64.477c-3.232,6.592-8.59,11.949-15.182,15.182l20.738,5.557L79.657,64.477z"/>
<path fill="#FFFFFF" d="M99.835,49.918L81.237,39.181c1.154,3.369,1.79,6.978,1.79,10.737c0,3.76-0.636,7.368-1.79,10.737  L99.835,49.918z"/>
</svg>